<?xml version="1.0" encoding="UTF-8"?>
<svg width="1366px" height="91px" viewBox="0 0 1366 91" version="1.1" xmlns="http://www.w3.org/2000/svg" xmlns:xlink="http://www.w3.org/1999/xlink">
    <!-- Generator: Sketch 50.2 (55047) - http://www.bohemiancoding.com/sketch -->
    <title>Combined Shape</title>
    <desc>Created with Sketch.</desc>
    <defs>
        <rect id="path-1" x="0" y="0" width="1366" height="98"></rect>
    </defs>
    <g id="Page-1" stroke="none" stroke-width="1" fill="none" fill-rule="evenodd">
        <g id="Combined-Shape" transform="translate(0.000000, -7.000000)">
            <mask id="mask-2" fill="white">
                <use xlink:href="#path-1"></use>
            </mask>
            <g id="Mask"></g>
            <path d="M376.510329,131.915139 C375.51406,131.971459 374.510363,132 373.5,132 C364.860784,132 356.708948,129.913275 349.521027,126.21636 C338.608977,139.515474 322.045322,148 303.5,148 C298.321671,148 293.297847,147.338487 288.508423,146.095358 C272.923237,169.54455 246.266525,185 216,185 C179.025251,185 147.43779,161.934281 134.841617,129.406844 C129.698495,131.089858 124.205535,132 118.5,132 C116.451541,132 114.430483,131.88268 112.443179,131.654393 C98.8748538,148.339987 78.1823166,159 55,159 C14.1309285,159 -19,125.869071 -19,85 C-19,44.1309285 14.1309285,11 55,11 C73.5803031,11 90.561222,17.8477777 103.55668,29.1572563 C108.292845,27.7535557 113.308421,27 118.5,27 C131.232308,27 142.906011,31.5324264 151.99568,39.0718492 C167.894096,21.8127366 190.684323,11 216,11 C239.505409,11 260.833634,20.3216365 276.489615,35.4698514 C284.595399,31.3330062 293.775248,29 303.5,29 C316.579543,29 328.67338,33.2203059 338.494053,40.3734592 C347.783003,32.0570954 360.050928,27 373.5,27 C390.595893,27 405.783238,35.1714677 415.369315,47.8216841 C424.663961,43.4460349 435.046329,41 446,41 C459.163771,41 471.502441,44.532677 482.119686,50.7017063 C490.816582,28.6242233 512.333675,13 537.5,13 C556.347153,13 573.147609,21.7629498 584.049311,35.4367917 C597.592374,20.4311342 617.194807,11 639,11 C657.580303,11 674.561222,17.8477777 687.55668,29.1572563 C692.292845,27.7535557 697.308421,27 702.5,27 C715.232308,27 726.906011,31.5324264 735.99568,39.0718492 C751.894096,21.8127366 774.684323,11 800,11 C823.505409,11 844.833634,20.3216365 860.489615,35.4698514 C868.595399,31.3330062 877.775248,29 887.5,29 C908.076275,29 926.21308,39.4446127 936.897899,55.3213216 C948.914594,46.3270145 963.835201,41 980,41 C993.163771,41 1005.50244,44.532677 1016.11969,50.7017063 C1024.81658,28.6242233 1046.33367,13 1071.5,13 C1090.34715,13 1107.14761,21.7629498 1118.04931,35.4367917 C1131.59237,20.4311342 1151.19481,11 1173,11 C1191.5803,11 1208.56122,17.8477777 1221.55668,29.1572563 C1226.29284,27.7535557 1231.30842,27 1236.5,27 C1251.17583,27 1264.4452,33.0217346 1273.97209,42.7291731 C1284.26289,24.9560684 1303.4852,13 1325.5,13 C1358.36094,13 1385,39.6390574 1385,72.5 C1385,105.360943 1358.36094,132 1325.5,132 C1306.83442,132 1290.17629,123.405082 1279.26741,109.957041 C1269.74798,123.30014 1254.13997,132 1236.5,132 C1234.45154,132 1232.43048,131.88268 1230.44318,131.654393 C1216.87485,148.339987 1196.18232,159 1173,159 C1144.69447,159 1120.10078,143.107703 1107.65501,119.759174 C1097.63386,127.437301 1085.09977,132 1071.5,132 C1064.07104,132 1056.96007,130.638509 1050.40301,128.151433 C1043.44457,160.640586 1014.56701,185 980,185 C950.472863,185 925.097073,167.225967 913.988159,141.793429 C906.011182,145.765846 897.016498,148 887.5,148 C882.321671,148 877.297847,147.338487 872.508423,146.095358 C856.923237,169.54455 830.266525,185 800,185 C763.025251,185 731.43779,161.934281 718.841617,129.406844 C713.698495,131.089858 708.205535,132 702.5,132 C700.451541,132 698.430483,131.88268 696.443179,131.654393 C682.874854,148.339987 662.182317,159 639,159 C610.694469,159 586.100783,143.107703 573.655007,119.759174 C563.633862,127.437301 551.099769,132 537.5,132 C530.071041,132 522.960074,130.638509 516.403008,128.151433 C509.444567,160.640586 480.567006,185 446,185 C412.78131,185 384.816879,162.503845 376.510336,131.915166 Z" stroke="#392417" stroke-width="8" fill="#FDEEC2" mask="url(#mask-2)"></path>
        </g>
    </g>
</svg>